<svg xmlns="http://www.w3.org/2000/svg" width="30" height="34.286" viewBox="0 0 30 34.286">
  <path id="Icon_awesome-birthday-cake" data-name="Icon awesome-birthday-cake" d="M30,25.714c-1.876,0-2.093-2.143-4.989-2.143s-3.136,2.143-5.006,2.143c-1.855,0-2.106-2.143-5.006-2.143-2.869,0-3.162,2.143-4.989,2.143-1.885,0-2.089-2.143-5.006-2.143S1.881,25.714,0,25.714V20.357a3.215,3.215,0,0,1,3.214-3.214H4.286V7.5H8.571v9.643h4.286V7.5h4.286v9.643h4.286V7.5h4.286v9.643h1.071A3.215,3.215,0,0,1,30,20.357Zm0,8.571H0V27.857c2.9,0,3.132-2.143,5.006-2.143s2.093,2.143,5.006,2.143c2.869,0,3.162-2.143,4.989-2.143,1.885,0,2.089,2.143,5.006,2.143s3.132-2.143,5.006-2.143c1.841,0,2.093,2.143,4.989,2.143ZM6.429,6.429A2.136,2.136,0,0,1,4.286,4.286C4.286,2.21,6.429,2.746,6.429,0c.8,0,2.143,1.975,2.143,3.75S7.617,6.429,6.429,6.429Zm8.571,0a2.136,2.136,0,0,1-2.143-2.143C12.857,2.21,15,2.746,15,0c.8,0,2.143,1.975,2.143,3.75S16.189,6.429,15,6.429Zm8.571,0a2.136,2.136,0,0,1-2.143-2.143c0-2.076,2.143-1.54,2.143-4.286.8,0,2.143,1.975,2.143,3.75S24.76,6.429,23.571,6.429Z" fill="#f1fffa"/>
</svg>