<svg xmlns="http://www.w3.org/2000/svg" version="1.1" xmlns:xlink="http://www.w3.org/1999/xlink" xmlns:svgjs="http://svgjs.dev/svgjs" viewBox="0 0 1920 1080"><rect width="1920" height="1080" fill="#000000"></rect><g transform="matrix(0.8131727983645296,0.8131727983645295,-0.8131727983645295,0.8131727983645296,618.4674246868974,-679.7591975467944)"><path d="M0,-1080C12.253891274129273,-938.0841386163191,64.0130035191329,-511.8664399272306,73.52334764477564,-228.50483169791494C83.03369177041839,54.856776531400726,60.871837136873125,348.06090864895634,57.06206475385645,620.169649375894C53.25229237083977,892.2783901028316,60.17505747231831,1147.5092208930264,50.66471334667557,1404.1476126637108C41.15436922103283,1660.7860044343952,8.444118891112595,2034.0246021106184,0,2160L 1920 2160 L 1920 -1080 Z" fill="url(&quot;#SvgjsLinearGradient1187&quot;)"></path><path d="M960,-1080C968.9723345928858,-990.1503991382892,1021.2497069234012,-707.1435465435669,1013.8340075573146,-540.9023948297353C1006.4183081912281,-374.66124311590363,910.307865382244,-248.49126313244074,915.5058038034808,-82.55308971700997C920.7037422247176,83.38508369842079,1052.4485525794573,259.6758149158925,1045.0216380847355,454.72664566284925C1037.5947235900137,649.777476409806,869.6664403283918,889.3055905583827,870.9443168351494,1087.7518947647309C872.222193341907,1286.198198971079,1037.846283264473,1466.6964533617265,1052.6888971252813,1645.4044709009381C1067.5315109860896,1824.1124884401497,975.4481495208802,2074.2340784834896,960,2160L 1920 2160 L 1920 -1080 Z" fill="url(&quot;#SvgjsLinearGradient1188&quot;)"></path></g><defs><linearGradient x1="0.1" y1="0" x2="0" y2="1" id="SvgjsLinearGradient1187"><stop stop-color="#040404" offset="0"></stop><stop stop-color="#040404" offset="0"></stop></linearGradient><linearGradient x1="0.1" y1="0" x2="0" y2="1" id="SvgjsLinearGradient1188"><stop stop-color="#0B0B0B" offset="0"></stop><stop stop-color="#0B0B0B" offset="0.5"></stop></linearGradient></defs></svg>